<svg xmlns="http://www.w3.org/2000/svg" viewBox="0 0 24 25.704">
    <path d="M9.871 25.803a2.18 2.18 0 0 1-2.003-1.341L.362 6.357a2.17 2.17 0 0 1 1.174-2.836L9.39.263a2.18 2.18 0 0 1 2.836 1.175l7.5 18.101a2.177 2.177 0 0 1-1.174 2.836l-7.858 3.258a2.1 2.1 0 0 1-.824.166m.373-24.528a.9.9 0 0 0-.373.077L1.984 4.599a1.003 1.003 0 0 0-.544 1.309l7.5 18.103a1.003 1.003 0 0 0 1.304.541l7.852-3.254a1.003 1.003 0 0 0 .543-1.309L11.145 1.886a1.01 1.01 0 0 0-.924-.618z"/>
    <path d="M16.782 13.411c-2.238.93-4.121 2.218-5.352 3.76L8.264 9.528a13.4 13.4 0 0 1 5.351-3.763c2.236-.93 4.517-1.383 6.444-1.117l3.165 7.644a13.4 13.4 0 0 0-6.442 1.118"/>
    <path fill="#111" d="M17.811 15.746c-2.432 0-4.655.467-6.381 1.429V9.439a13.4 13.4 0 0 1 6.381-1.431c2.435 0 4.703.449 6.384 1.431v7.732a13.4 13.4 0 0 0-6.384-1.429"/>
</svg>
