<svg xmlns="http://www.w3.org/2000/svg" viewBox="0 0 557 545" xml:space="preserve">
	<path fill="#6F6F6F"
		d="M358.555 517.687c-8.813 2.256-17.166 4.892-25.72 6.294-12.963 2.123-26.03 4.193-39.12 4.798-13.897.642-27.985.521-41.784-1.058-14.12-1.615-28.172-4.726-41.934-8.384-26.94-7.16-51.602-19.444-74.614-35.17-18.16-12.41-34.012-27.257-48.55-43.706-14.074-15.92-25.613-33.51-35.108-52.376-10.823-21.507-18.173-44.242-22.868-67.94-4.36-22.007-5.045-44.24-3.462-66.308 1.247-17.397 4.97-34.793 9.304-51.752 6.938-27.153 19.578-51.888 35.302-75.087 11.42-16.848 24.993-31.843 40.05-45.326 26.935-24.12 57.766-41.79 92.307-52.807 17.752-5.662 35.79-9.996 54.464-10.822 14.428-.639 28.954-1.78 43.307-.804 27.001 1.837 53.143 8.1 78.284 18.457 23.935 9.86 46.046 22.842 65.848 39.34 25.486 21.234 46.414 46.386 62.238 75.777 13.282 24.67 22.154 50.764 27.355 78.17 3.982 20.988 4.28 42.324 2.888 63.451-2.227 33.787-11.287 66.036-26.758 96.252-9.48 18.517-20.85 35.8-34.599 51.575-20.87 23.947-44.75 44.104-73.08 58.48-14.025 7.116-28.894 12.569-43.75 18.946m-100.937-410.73-3.816.439 135.341 295.648c9.437-10.728 18.918-20.222 26.91-30.837 23.112-30.697 33.272-65.767 32.865-103.984-.067-6.228-1.2-12.45-1.913-18.665-1.792-15.64-6.264-30.548-12.722-44.844-12.277-27.174-30.218-49.854-54.459-67.355-14.89-10.75-30.978-19.147-48.642-24.505-12.334-3.741-24.797-6.863-37.693-7.037-11.67-.157-23.353.639-35.87 1.14m-26.516 163.41-57.56-125.974c-58.347 48.106-75.493 129.018-46.664 195.195 30.113 69.123 103.825 111.738 181.135 98.919-1.974-4.4-3.876-8.724-5.848-13.017-8.178-17.804-16.417-35.58-24.56-53.4-15.392-33.682-30.733-67.386-46.503-101.723"/>
</svg>
