<svg viewBox="0 0 148.5 148.5" width="148.5" height="148.5"
		xmlns="http://www.w3.org/2000/svg">
	<circle cx="74.25" cy="74.25" r="67.5" fill="#3b82f6"/>
	<path fill="#FAFDF7"
			d="M55.591 87.07c1.242 1.579 2.257 2.877 3.794 4.845 4.563-4.975 8.98-9.767 13.37-14.584 10.27-11.272 20.493-22.587 30.805-33.821 5.217-5.685 12.421-4.738 13.686 2.162.502 2.731-1.582 6.653-3.651 9.016-9.81 11.204-20.025 22.054-30.091 33.036-6.274 6.847-12.478 13.759-18.825 20.537-4.089 4.366-8.44 4.121-12.137-.632a2595 2595 0 0 1-21.483-27.974c-3.696-4.889-3.488-8.969.304-11.81 3.633-2.722 7.994-1.711 11.557 2.82 4.196 5.337 8.299 10.747 12.671 16.405"/>
</svg>
