<svg xmlns="http://www.w3.org/2000/svg" viewBox="0 0 24 24">
	<path fill="#3b82f6" d="M22.909 12A10.91 10.91 0 0 1 12 22.909 10.91 10.91 0 0 1 1.091 12a10.909 10.909 0 0 1 21.818 0" />
	<path fill="#FAFDF7" d="M8.984 14.072c.201.255.365.465.613.783.737-.804 1.451-1.579 2.161-2.357 1.66-1.822 3.312-3.65 4.979-5.466.843-.919 2.007-.766 2.212.349.081.441-.256 1.075-.59 1.457-1.585 1.811-3.236 3.564-4.863 5.339-1.014 1.107-2.017 2.224-3.042 3.319-.661.706-1.364.666-1.962-.102a419 419 0 0 1-3.472-4.521c-.597-.79-.564-1.45.049-1.909.587-.44 1.292-.277 1.868.456.678.863 1.341 1.737 2.048 2.651" />
</svg>
