<svg xmlns="http://www.w3.org/2000/svg" stroke="#000" stroke-width="1.4" viewBox="0 0 24 24">
	<g stroke-width="0" />
	<g stroke-linecap="round" stroke-linejoin="round" />
	<g fill="none" fill-rule="evenodd" stroke-linecap="round" stroke-linejoin="round">
		<path d="M21.143 13.143v3.429c0 1.486-3.582 3.429-8 3.429s-8-1.943-8-3.429v-2.858" />
		<path d="M5.479 14.01c.989 1.312 4.046 2.543 7.664 2.543 4.418 0 8-1.835 8-3.413 0-.886-1.128-1.856-2.898-2.537" />
		<path d="M17.714 7.429v3.429c0 1.486-3.582 3.429-8 3.429s-8-1.943-8-3.429V7.429" />
		<path d="M9.714 10.839c4.418 0 8-1.835 8-3.413S14.133 4 9.714 4s-8 1.848-8 3.426c0 1.577 3.582 3.413 8 3.413" />
	</g>
</svg>
