<svg viewBox="0 0 148.5 148.5" width="148.5" height="148.5" xmlns="http://www.w3.org/2000/svg">
	<circle cx="74.25" cy="74.25" r="67.5" fill="#60a5fa" />
	<path fill="#F9FEFC" d="M73.463 40.954c-5.433.554-7.57 3.873-8.053 8.406-.297 2.792-.428 5.7-3.815 6.076-4.007.446-8.185 1.463-11.642-2.245-2.703-2.9-1.02-5.289-.212-8.17 2.294-8.171 6.508-14.379 14.892-17.288 14.6-5.067 29.821 1.402 33.794 14.839 2.331 7.881 1.049 15.515-3.738 22.283-3.252 4.597-7.227 8.713-10.195 13.47a33.6 33.6 0 0 0-4.405 11.277c-.855 4.499-3.096 6.717-7.385 7.157-4.587.472-7.781-1.294-8.586-6.1-1.386-8.281 1.582-15.255 6.67-21.583 3.83-4.763 8.168-9.255 11.192-14.495 4.073-7.058.035-13.287-8.517-13.627" />
	<path fill="#F5FCFA" d="M70.851 102.848c4.667-.823 8.188.939 9.679 4.695.89 2.242.457 5.645-.653 7.9-1.725 3.502-5.064 4.963-9.221 3.841-3.874-1.047-5.942-3.637-6.25-7.397-.363-4.434 1.594-7.643 6.445-9.039" />
</svg>
