<svg xmlns="http://www.w3.org/2000/svg" viewBox="0 0 24 24">
	<path fill="#60a5fa" d="M22.909 12A10.91 10.91 0 0 1 12 22.909 10.91 10.91 0 0 1 1.091 12a10.909 10.909 0 0 1 21.818 0" />
	<path fill="#F9FEFC" d="M11.873 6.619c-.878.09-1.223.626-1.301 1.359-.048.451-.069.921-.617.982-.648.072-1.323.236-1.882-.363-.437-.469-.165-.855-.034-1.32.371-1.321 1.052-2.324 2.407-2.794 2.36-.819 4.82.227 5.462 2.398.377 1.274.17 2.507-.604 3.601-.526.743-1.168 1.408-1.648 2.177a5.4 5.4 0 0 0-.712 1.823c-.138.727-.5 1.086-1.194 1.157-.741.076-1.258-.209-1.388-.986-.224-1.338.256-2.465 1.078-3.488.619-.77 1.32-1.496 1.809-2.343.658-1.141.006-2.147-1.376-2.202" />
	<path fill="#F5FCFA" d="M11.451 16.622c.754-.133 1.323.152 1.564.759.144.362.074.912-.106 1.277-.279.566-.818.802-1.49.621-.626-.169-.96-.588-1.01-1.195-.059-.717.258-1.235 1.042-1.461" />
</svg>
