<svg xmlns="http://www.w3.org/2000/svg" viewBox="0 0 500 500">
	<path fill="none" stroke="#374151" stroke-linecap="round" stroke-linejoin="round" stroke-width="30" d="M234.435 48.516H87.012a65.52 65.52 0 0 0-65.522 65.522v294.846a65.52 65.52 0 0 0 65.522 65.522h327.607a65.52 65.52 0 0 0 65.522-65.522V261.461" />
	<path fill="none" stroke="#1f2937" stroke-linecap="round" stroke-linejoin="round" stroke-width="40" d="M301.033 107.46 116.776 291.717v92.124H208.9l184.257-184.258m-92.124-92.123 66.076-66.076.018-.019c9.101-9.101 13.657-13.656 18.907-15.368a22.9 22.9 0 0 1 14.236 0c5.249 1.712 9.786 6.267 18.887 15.34l40.075 40.075c9.12 9.12 13.676 13.685 15.388 18.934a23.2 23.2 0 0 1 0 14.237c-1.712 5.25-6.268 9.804-15.388 18.925l-66.075 66.104m-92.124-92.123 92.124 92.123" />
</svg>
