<svg xmlns="http://www.w3.org/2000/svg" viewBox="0 0 24 24">
	<path fill="none" stroke="#374151" stroke-linecap="round" stroke-linejoin="round" stroke-width="1.44" d="M11.253 2.329H4.177a3.145 3.145 0 0 0-3.145 3.145v14.153a3.145 3.145 0 0 0 3.145 3.145h15.725a3.145 3.145 0 0 0 3.145-3.145V12.55" />
	<path fill="none" stroke="#1f2937" stroke-linecap="round" stroke-linejoin="round" stroke-width="1.92" d="m14.45 5.158-8.845 8.844v4.422h4.422l8.844-8.844m-4.422-4.422 3.172-3.172.001-.001c.437-.437.656-.655.908-.738a1.1 1.1 0 0 1 .683 0c.252.082.47.301.907.736l1.924 1.924c.438.438.656.657.739.909a1.1 1.1 0 0 1 0 .683c-.082.252-.301.471-.739.908L18.872 9.58M14.45 5.158l4.422 4.422" />
</svg>
